<svg width="304" height="268" viewBox="0 0 304 268" fill="none" xmlns="http://www.w3.org/2000/svg">
<path d="M0 152.874C0 128.404 0 103.934 0 78.9319C0 70.9525 3.72414 66.1649 10.1084 64.569C11.7044 64.0371 13.8325 64.0371 15.9606 64.569C40.4335 70.9525 64.3745 77.3361 88.8474 83.7196C105.872 87.9752 122.897 92.7629 139.921 97.0186C142.049 97.5505 142.581 98.6144 142.581 100.742C142.581 129.468 142.581 158.194 142.581 187.452C142.581 199.155 136.729 205.538 126.089 209.262C113.32 213.518 100.552 218.837 87.7834 223.093C67.5666 230.54 47.3498 237.988 27.133 245.967C13.8325 250.755 0 240.648 0 227.349C0 202.347 0 177.876 0 152.874Z" fill="url(#paint0_linear_265_5)"/>
<path d="M201.635 214.049C201.635 212.985 201.635 211.921 201.635 210.857C201.635 182.664 201.635 153.938 201.635 125.744C201.635 115.637 205.891 108.721 214.935 104.997C239.408 93.8263 263.349 82.1232 287.822 70.4201C296.335 66.6963 303.783 72.5479 303.783 80.5273C303.251 122.02 303.783 163.513 303.783 205.006C303.783 207.666 303.783 209.794 303.783 212.453C303.251 224.688 291.546 233.732 279.842 231.072C254.305 225.752 229.3 219.901 203.763 214.581C202.699 214.581 202.167 214.581 201.635 214.049Z" fill="url(#paint1_linear_265_5)"/>
<path d="M161.202 57.1212C161.202 45.4181 161.202 33.183 161.202 21.4799C161.202 4.98915 177.695 -5.11808 192.591 3.39327C221.852 20.416 251.114 37.4387 280.375 53.9294C283.035 55.5253 285.163 57.6532 284.631 61.3769C284.631 64.5686 282.503 66.6965 279.311 68.2924C254.838 79.9955 230.365 91.1666 205.892 102.87C200.572 105.53 195.251 105.53 189.399 104.466C180.887 102.338 172.375 99.678 163.33 97.5501C161.202 97.0182 160.67 96.4862 160.67 94.3584C161.202 81.5913 161.202 69.3563 161.202 57.1212Z" fill="url(#paint2_linear_265_5)"/>
<path d="M142.05 91.6989C135.134 90.103 128.749 87.9752 121.833 86.3793C90.444 78.3999 58.5227 69.8886 27.1335 61.3772C26.6015 61.3772 25.5375 61.3772 25.0054 60.8453C23.9414 59.7813 21.8133 58.7174 21.8133 57.1215C21.8133 56.0576 22.8774 53.9298 23.9414 53.3978C30.3256 49.1421 37.2419 45.4184 43.6262 41.6947C65.439 28.9277 87.2518 16.1607 109.597 3.92558C118.641 -1.39402 127.153 -1.39402 134.602 4.45754C139.39 8.18126 142.582 13.5009 142.582 19.3524C142.582 42.7586 142.582 66.6968 142.582 90.103C142.582 90.635 142.582 90.635 142.05 91.6989Z" fill="url(#paint3_linear_265_5)"/>
<path d="M195.252 232.667C195.252 241.711 195.252 251.286 195.252 260.329C195.252 264.585 191.528 267.777 186.739 267.245C170.779 266.713 154.818 265.649 138.858 265.117C108.532 263.521 78.2073 261.925 48.4142 260.329C47.8822 260.329 46.8181 259.797 46.2861 259.265C46.8181 258.733 47.8822 257.669 48.4142 257.669C76.6113 248.094 104.808 238.519 133.005 228.944C137.794 227.348 142.05 225.752 146.838 224.156C150.03 223.624 153.222 223.092 156.414 223.624C168.651 226.284 180.355 228.944 192.592 231.603C193.656 232.135 194.72 232.135 195.252 232.667Z" fill="url(#paint4_linear_265_5)"/>
<path d="M195.251 212.985C188.335 211.39 180.886 210.326 174.502 207.666C165.458 204.474 161.734 197.559 161.202 188.515C161.202 160.321 161.202 132.66 161.202 104.466C161.202 103.934 161.202 103.934 161.202 102.87C162.266 102.87 162.798 102.87 163.33 103.402C168.65 104.998 173.97 106.062 179.29 107.657C188.335 110.317 195.251 117.765 195.251 127.34C195.251 155.534 195.251 183.728 195.251 211.922C195.783 211.922 195.251 212.453 195.251 212.985Z" fill="url(#paint5_linear_265_5)"/>
<path d="M202.167 233.732C209.615 235.328 217.064 236.924 224.512 239.052C235.152 241.711 246.325 243.839 256.965 246.499C258.029 247.031 259.093 248.095 260.157 248.627C259.093 249.691 258.029 250.755 256.965 251.287C242.601 255.542 228.236 259.266 213.871 263.522C206.423 265.65 201.635 261.926 201.635 254.478C201.635 248.095 201.635 241.711 201.635 235.328C201.635 234.796 201.635 234.796 202.167 233.732Z" fill="url(#paint6_linear_265_5)"/>
<defs>
<linearGradient id="paint0_linear_265_5" x1="303.783" y1="133.651" x2="0" y2="133.651" gradientUnits="userSpaceOnUse">
<stop stop-color="#00C950"/>
<stop offset="1" stop-color="#AD46FF"/>
</linearGradient>
<linearGradient id="paint1_linear_265_5" x1="303.783" y1="133.651" x2="0" y2="133.651" gradientUnits="userSpaceOnUse">
<stop stop-color="#00C950"/>
<stop offset="1" stop-color="#AD46FF"/>
</linearGradient>
<linearGradient id="paint2_linear_265_5" x1="303.783" y1="133.651" x2="0" y2="133.651" gradientUnits="userSpaceOnUse">
<stop stop-color="#00C950"/>
<stop offset="1" stop-color="#AD46FF"/>
</linearGradient>
<linearGradient id="paint3_linear_265_5" x1="303.783" y1="133.651" x2="0" y2="133.651" gradientUnits="userSpaceOnUse">
<stop stop-color="#00C950"/>
<stop offset="1" stop-color="#AD46FF"/>
</linearGradient>
<linearGradient id="paint4_linear_265_5" x1="303.783" y1="133.651" x2="0" y2="133.651" gradientUnits="userSpaceOnUse">
<stop stop-color="#00C950"/>
<stop offset="1" stop-color="#AD46FF"/>
</linearGradient>
<linearGradient id="paint5_linear_265_5" x1="303.783" y1="133.651" x2="0" y2="133.651" gradientUnits="userSpaceOnUse">
<stop stop-color="#00C950"/>
<stop offset="1" stop-color="#AD46FF"/>
</linearGradient>
<linearGradient id="paint6_linear_265_5" x1="303.783" y1="133.651" x2="0" y2="133.651" gradientUnits="userSpaceOnUse">
<stop stop-color="#00C950"/>
<stop offset="1" stop-color="#AD46FF"/>
</linearGradient>
</defs>
</svg>
